<svg width="52" height="34" viewBox="0 0 52 34" fill="none" xmlns="http://www.w3.org/2000/svg">
    <g filter="url(#filter0_dd_20_320)">
        <path d="M26.0221 10.1212L23.8479 20.2848H21.2188L23.3933 10.1212H26.0221ZM37.0838 16.6839L38.468 12.8671L39.2645 16.6839H37.0838ZM40.0172 20.2848H42.4491L40.327 10.1212H38.0823C37.5779 10.1212 37.1523 10.4146 36.9628 10.8669L33.0184 20.2848H35.7794L36.3275 18.7671H39.7007L40.0172 20.2848ZM33.1554 16.9663C33.1667 14.2838 29.4458 14.1362 29.4715 12.9379C29.4792 12.5728 29.827 12.1855 30.5865 12.0861C30.9638 12.0369 32.0012 11.9992 33.1792 12.5413L33.6405 10.386C33.0078 10.1563 32.1936 9.9353 31.1809 9.9353C28.5824 9.9353 26.7533 11.3169 26.7379 13.2953C26.7215 14.7583 28.0436 15.5747 29.0398 16.0611C30.0641 16.5594 30.4083 16.8785 30.4038 17.324C30.397 18.0063 29.5867 18.3068 28.8307 18.3187C27.5086 18.3396 26.7414 17.9619 26.1299 17.6769L25.6535 19.9039C26.2676 20.186 27.4015 20.4312 28.5779 20.4437C31.3395 20.4437 33.1464 19.0791 33.1554 16.9663ZM22.2652 10.1212L18.0055 20.2848H15.2258L13.1298 12.1736C13.0024 11.674 12.8917 11.4913 12.5047 11.2806C11.8733 10.938 10.8294 10.616 9.91101 10.4165L9.97374 10.1212H14.4474C15.0174 10.1212 15.5305 10.5008 15.6598 11.1574L16.767 17.039L19.5029 10.1212H22.2652Z"
              fill="#1434CB"/>
    </g>
    <defs>
        <filter id="filter0_dd_20_320" x="-5.96429" y="-4.48214" width="64.5428" height="47.9588"
                filterUnits="userSpaceOnUse" color-interpolation-filters="sRGB">
            <feFlood flood-opacity="0" result="BackgroundImageFix"/>
            <feColorMatrix in="SourceAlpha" type="matrix" values="0 0 0 0 0 0 0 0 0 0 0 0 0 0 0 0 0 0 127 0"
                           result="hardAlpha"/>
            <feOffset dy="0.448214"/>
            <feGaussianBlur stdDeviation="2.24107"/>
            <feColorMatrix type="matrix" values="0 0 0 0 0.717647 0 0 0 0 0.717647 0 0 0 0 0.717647 0 0 0 0.08 0"/>
            <feBlend mode="normal" in2="BackgroundImageFix" result="effect1_dropShadow_20_320"/>
            <feColorMatrix in="SourceAlpha" type="matrix" values="0 0 0 0 0 0 0 0 0 0 0 0 0 0 0 0 0 0 127 0"
                           result="hardAlpha"/>
            <feOffset dy="4.48214"/>
            <feGaussianBlur stdDeviation="4.48214"/>
            <feColorMatrix type="matrix" values="0 0 0 0 0.717647 0 0 0 0 0.717647 0 0 0 0 0.717647 0 0 0 0.08 0"/>
            <feBlend mode="normal" in2="effect1_dropShadow_20_320" result="effect2_dropShadow_20_320"/>
            <feBlend mode="normal" in="SourceGraphic" in2="effect2_dropShadow_20_320" result="shape"/>
        </filter>
    </defs>
</svg>
